<svg width="21.000000" height="21.000000" viewBox="0 0 21 21" fill="none" xmlns="http://www.w3.org/2000/svg" xmlns:xlink="http://www.w3.org/1999/xlink">
	<desc>
			Created with Pixso.
	</desc>
	<defs/>
	<path id="Vector" d="M10 20.24C15.59 20.24 20.24 15.6 20.24 10C20.24 4.4 15.6 -0.25 10.01 -0.25C9.47 -0.25 9.21 0.07 9.21 0.59L9.21 4.49C9.21 4.92 9.5 5.27 9.94 5.27C10.39 5.27 10.69 4.92 10.69 4.49L10.69 1.49C15.11 1.84 18.52 5.5 18.52 10C18.53 11.12 18.31 12.23 17.88 13.27C17.46 14.3 16.83 15.25 16.04 16.04C15.24 16.83 14.3 17.46 13.26 17.89C12.23 18.32 11.12 18.54 10 18.53C5.25 18.53 1.45 14.74 1.46 10C1.47 7.89 2.22 5.97 3.48 4.49C3.79 4.1 3.81 3.63 3.48 3.27C3.14 2.91 2.58 2.94 2.22 3.4C0.68 5.18 -0.25 7.49 -0.25 10C-0.25 15.6 4.39 20.24 10 20.24ZM11.6 11.54C12.4 10.72 12.24 9.59 11.28 8.93L5.97 5.22C5.46 4.87 4.94 5.39 5.29 5.9L9 11.21C9.66 12.16 10.79 12.34 11.6 11.54Z" fill="#000000" fill-opacity="1.000000" fill-rule="nonzero"/>
</svg>
